<svg xmlns="http://www.w3.org/2000/svg" version="1.1" xmlns:xlink="http://www.w3.org/1999/xlink" xmlns:svgjs="http://svgjs.dev/svgjs" width="1440" height="560" preserveAspectRatio="none" viewBox="0 0 1440 560">
    <g mask="url(&quot;#SvgjsMask1354&quot;)" fill="none">
        <rect width="1440" height="560" x="0" y="0" fill="rgba(8, 8, 8, 1)"></rect>
        <path d="M466.393,569.259C490.182,569.775,513.748,559.077,525.371,538.314C536.766,517.958,532.238,493.178,520.15,473.226C508.544,454.07,488.789,440.648,466.393,440.97C444.5,441.285,426.184,455.766,415.247,474.734C404.321,493.682,401.274,516.612,411.683,535.849C422.582,555.991,443.496,568.763,466.393,569.259" fill="rgba(59, 59, 59, 0.4)" class="triangle-float1"></path>
        <path d="M305.359,334.864C323.868,336.096,344.969,336.186,355.344,320.809C366.594,304.135,363.831,281.378,352.786,264.568C342.701,249.218,323.681,243.439,305.359,244.729C289.251,245.863,276.193,256.466,268.244,270.522C260.438,284.327,257.788,301.104,265.712,314.841C273.641,328.587,289.525,333.81,305.359,334.864" fill="rgba(59, 59, 59, 0.4)" class="triangle-float1"></path>
        <path d="M815.731,509.599C868.367,507.575,910.947,470.621,935.969,424.269C959.643,380.415,963.818,326.845,937.095,284.78C911.965,245.222,862.566,236.668,815.731,235.001C764.61,233.182,707.467,233.467,678.421,275.573C646.245,322.216,649.656,385.304,678.331,434.177C706.669,482.474,759.775,511.751,815.731,509.599" fill="rgba(59, 59, 59, 0.4)" class="triangle-float1"></path>
        <path d="M1437.533,279.834C1465.477,279.528,1487.75,260.61,1503.19,237.317C1520.99,210.464,1538.995,178.008,1523.895,149.549C1508.229,120.022,1470.95,112.823,1437.533,113.567C1405.653,114.277,1372.838,125.249,1357.586,153.253C1342.833,180.34,1352.866,212.705,1369.337,238.783C1384.523,262.827,1409.097,280.145,1437.533,279.834" fill="rgba(59, 59, 59, 0.4)" class="triangle-float1"></path>
        <path d="M163.648,240.801C206.641,238.086,236.18,202.762,257.842,165.525C279.671,128.001,299.605,82.765,277.218,45.571C255.237,9.052,206.172,6.102,163.648,9.027C127.053,11.544,95.105,29.351,74.257,59.532C49.368,95.564,26.951,139.605,46.319,178.881C67.282,221.39,116.345,243.788,163.648,240.801" fill="rgba(59, 59, 59, 0.4)" class="triangle-float1"></path>
        <path d="M236.953,801.541C289.388,798.162,323.335,753.064,350.534,708.108C379.158,660.796,409.041,606.872,384.801,557.171C358.327,502.891,297.343,475.726,236.953,475.226C175.629,474.718,115.166,501.405,84.799,554.685C54.69,607.512,62.927,672.823,94.832,724.585C125.129,773.739,179.332,805.254,236.953,801.541" fill="rgba(59, 59, 59, 0.4)" class="triangle-float2"></path>
        <path d="M160.27,602.546C187.347,603.591,215.035,591.809,227.72,567.864C239.806,545.05,229.4,518.821,216.458,496.481C203.561,474.217,185.971,452.65,160.27,451.429C132.788,450.123,106.864,466.34,94.002,490.661C81.862,513.617,88.042,540.639,101.276,562.982C114.209,584.817,134.911,601.567,160.27,602.546" fill="rgba(59, 59, 59, 0.4)" class="triangle-float2"></path>
    </g>
    <defs>
        <mask id="SvgjsMask1354">
            <rect width="1440" height="560" fill="#ffffff"></rect>
        </mask>
        <style>

            svg{
                animation: 2s fadeIn ease-in-out;
            }
            @keyframes fadeIn{
                0%{
                    opacity: 0;
                }
                100%{
                    opacity: 100%;
                }
            }
            @keyframes float1 {
                    0%{transform: translate(0, 0)}
                    50%{transform: translate(-10px, 0)}
                    100%{transform: translate(0, 0)}
                }

                .triangle-float1 {
                    animation: float1 5s infinite;
                }

                @keyframes float2 {
                    0%{transform: translate(0, 0)}
                    50%{transform: translate(-5px, -5px)}
                    100%{transform: translate(0, 0)}
                }

                .triangle-float2 {
                    animation: float2 4s infinite;
                }

                @keyframes float3 {
                    0%{transform: translate(0, 0)}
                    50%{transform: translate(0, -10px)}
                    100%{transform: translate(0, 0)}
                }

                .triangle-float3 {
                    animation: float3 6s infinite;
                }
        </style>
    </defs>
</svg>